<?xml version="1.0" encoding="utf-8"?>
<!-- created with bpmn-js / http://bpmn.io -->
<!DOCTYPE svg PUBLIC "-//W3C//DTD SVG 1.1//EN" "http://www.w3.org/Graphics/SVG/1.1/DTD/svg11.dtd">
<svg xmlns="http://www.w3.org/2000/svg" xmlns:xlink="http://www.w3.org/1999/xlink" width="1202" height="802" viewBox="154 74 1202 802" version="1.1"><defs><marker id="sequenceflow-end-white-black-98o8gibeslk3ohesqf6inmlah" viewBox="0 0 20 20" refX="11" refY="10" markerWidth="10" markerHeight="10" orient="auto"><path d="M 1 5 L 11 10 L 1 15 Z" style="fill: black; stroke-width: 1px; stroke-linecap: round; stroke-dasharray: 10000, 1; stroke: black;"/></marker><marker id="messageflow-end-white-black-98o8gibeslk3ohesqf6inmlah" viewBox="0 0 20 20" refX="8.5" refY="5" markerWidth="20" markerHeight="20" orient="auto"><path d="m 1 5 l 0 -3 l 7 3 l -7 3 z" style="fill: white; stroke-width: 1px; stroke-linecap: butt; stroke-dasharray: 10000, 1; stroke: black;"/></marker><marker id="messageflow-start-white-black-98o8gibeslk3ohesqf6inmlah" viewBox="0 0 20 20" refX="6" refY="6" markerWidth="20" markerHeight="20" orient="auto"><circle cx="6" cy="6" r="3.5" style="fill: white; stroke-width: 1px; stroke-linecap: round; stroke-dasharray: 10000, 1; stroke: black;"/></marker><marker id="association-end-white-black-98o8gibeslk3ohesqf6inmlah" viewBox="0 0 20 20" refX="12" refY="10" markerWidth="10" markerHeight="10" orient="auto"><path d="M 1 5 L 11 10 L 1 15" style="fill: none; stroke-width: 1.5px; stroke-linecap: round; stroke-dasharray: 10000, 1; stroke: black;"/></marker></defs><g class="djs-group"><g class="djs-element djs-shape" data-element-id="Participant_0ofq3py" style="display: block;" transform="matrix(1 0 0 1 160 80)"><g class="djs-visual"><rect x="0" y="0" width="1190" height="480" rx="0" ry="0" style="stroke: black; stroke-width: 2px; fill: white; fill-opacity: 0.95;"/><polyline points="30,0 30,480 " style="fill: none; stroke: black; stroke-width: 2px;"/><text lineHeight="1.2" class="djs-label" style="font-family: Arial, sans-serif; font-size: 12px; font-weight: normal; fill: black;" transform="matrix(-1.83697e-16 -1 1 -1.83697e-16 0 480)"><tspan x="212.8203125" y="18.6">Piscina_A</tspan></text></g><rect x="-6" y="-6" width="1202" height="492" class="djs-outline" style="fill: none;"/><rect class="djs-hit djs-hit-click-stroke" x="0" y="0" width="1190" height="480" style="fill: none; stroke-opacity: 0; stroke: white; stroke-width: 15px;"/><rect class="djs-hit djs-hit-all" x="0" y="0" width="30" height="480" style="fill: none; stroke-opacity: 0; stroke: white; stroke-width: 15px;"/></g><g class="djs-children"><g class="djs-group"><g class="djs-element djs-connection" data-element-id="Flow_068a4zw" style="display: block;"><g class="djs-visual"><path d="m  278,240L310,240 " style="fill: none; stroke-width: 2px; stroke: black; stroke-linejoin: round; marker-end: url('#sequenceflow-end-white-black-98o8gibeslk3ohesqf6inmlah');"/></g><polyline points="278,240 310,240 " class="djs-hit djs-hit-stroke" style="fill: none; stroke-opacity: 0; stroke: white; stroke-width: 15px;"/><rect x="272" y="234" width="44" height="12" class="djs-outline" style="fill: none;"/></g></g><g class="djs-group"><g class="djs-element djs-connection" data-element-id="Flow_02y1bls" style="display: block;"><g class="djs-visual"><path d="m  410,240L445,240 " style="fill: none; stroke-width: 2px; stroke: black; stroke-linejoin: round; marker-end: url('#sequenceflow-end-white-black-98o8gibeslk3ohesqf6inmlah');"/></g><polyline points="410,240 445,240 " class="djs-hit djs-hit-stroke" style="fill: none; stroke-opacity: 0; stroke: white; stroke-width: 15px;"/><rect x="404" y="234" width="47" height="12" class="djs-outline" style="fill: none;"/></g></g><g class="djs-group"><g class="djs-element djs-connection" data-element-id="Flow_1itq4sn" style="display: block;"><g class="djs-visual"><path d="m  470,215L470,183 L550,183 " style="fill: none; stroke-width: 2px; stroke: black; stroke-linejoin: round; marker-end: url('#sequenceflow-end-white-black-98o8gibeslk3ohesqf6inmlah');"/></g><polyline points="470,215 470,183 550,183 " class="djs-hit djs-hit-stroke" style="fill: none; stroke-opacity: 0; stroke: white; stroke-width: 15px;"/><rect x="464" y="177" width="92" height="44" class="djs-outline" style="fill: none;"/></g></g><g class="djs-group"><g class="djs-element djs-connection" data-element-id="Flow_1uv6si8" style="display: block;"><g class="djs-visual"><path d="m  470,265L470,304 L550,304 " style="fill: none; stroke-width: 2px; stroke: black; stroke-linejoin: round; marker-end: url('#sequenceflow-end-white-black-98o8gibeslk3ohesqf6inmlah');"/></g><polyline points="470,265 470,304 550,304 " class="djs-hit djs-hit-stroke" style="fill: none; stroke-opacity: 0; stroke: white; stroke-width: 15px;"/><rect x="464" y="259" width="92" height="51" class="djs-outline" style="fill: none;"/></g></g><g class="djs-group"><g class="djs-element djs-connection" data-element-id="Flow_0b8io7w" style="display: block;"><g class="djs-visual"><path d="m  650,183L732,183 " style="fill: none; stroke-width: 2px; stroke: black; stroke-linejoin: round; marker-end: url('#sequenceflow-end-white-black-98o8gibeslk3ohesqf6inmlah');"/></g><polyline points="650,183 732,183 " class="djs-hit djs-hit-stroke" style="fill: none; stroke-opacity: 0; stroke: white; stroke-width: 15px;"/><rect x="644" y="177" width="94" height="12" class="djs-outline" style="fill: none;"/></g></g><g class="djs-group"><g class="djs-element djs-connection" data-element-id="Flow_1kl3yyj" style="display: block;"><g class="djs-visual"><path d="m  650,304L700,304 " style="fill: none; stroke-width: 2px; stroke: black; stroke-linejoin: round; marker-end: url('#sequenceflow-end-white-black-98o8gibeslk3ohesqf6inmlah');"/></g><polyline points="650,304 700,304 " class="djs-hit djs-hit-stroke" style="fill: none; stroke-opacity: 0; stroke: white; stroke-width: 15px;"/><rect x="644" y="298" width="62" height="12" class="djs-outline" style="fill: none;"/></g></g><g class="djs-group"><g class="djs-element djs-connection" data-element-id="Flow_0kn0oue" style="display: block;"><g class="djs-visual"><path d="m  768,183L851,183 L851,215 " style="fill: none; stroke-width: 2px; stroke: black; stroke-linejoin: round; marker-end: url('#sequenceflow-end-white-black-98o8gibeslk3ohesqf6inmlah');"/></g><polyline points="768,183 851,183 851,215 " class="djs-hit djs-hit-stroke" style="fill: none; stroke-opacity: 0; stroke: white; stroke-width: 15px;"/><rect x="762" y="177" width="95" height="44" class="djs-outline" style="fill: none;"/></g></g><g class="djs-group"><g class="djs-element djs-connection" data-element-id="Flow_07lcmta" style="display: block;"><g class="djs-visual"><path d="m  800,304L851,304 L851,265 " style="fill: none; stroke-width: 2px; stroke: black; stroke-linejoin: round; marker-end: url('#sequenceflow-end-white-black-98o8gibeslk3ohesqf6inmlah');"/></g><polyline points="800,304 851,304 851,265 " class="djs-hit djs-hit-stroke" style="fill: none; stroke-opacity: 0; stroke: white; stroke-width: 15px;"/><rect x="794" y="259" width="63" height="51" class="djs-outline" style="fill: none;"/></g></g><g class="djs-group"><g class="djs-element djs-connection" data-element-id="Flow_0hp5iwl" style="display: block;"><g class="djs-visual"><path d="m  876,240L920,240 " style="fill: none; stroke-width: 2px; stroke: black; stroke-linejoin: round; marker-end: url('#sequenceflow-end-white-black-98o8gibeslk3ohesqf6inmlah');"/></g><polyline points="876,240 920,240 " class="djs-hit djs-hit-stroke" style="fill: none; stroke-opacity: 0; stroke: white; stroke-width: 15px;"/><rect x="870" y="234" width="56" height="12" class="djs-outline" style="fill: none;"/></g></g><g class="djs-group"><g class="djs-element djs-connection" data-element-id="Flow_0fgnaw2" style="display: block;"><g class="djs-visual"><path d="m  870,234L870,120 L360,120 L360,200 " style="fill: none; stroke-width: 2px; stroke: black; stroke-linejoin: round; marker-end: url('#sequenceflow-end-white-black-98o8gibeslk3ohesqf6inmlah');"/></g><polyline points="870,234 870,120 360,120 360,200 " class="djs-hit djs-hit-stroke" style="fill: none; stroke-opacity: 0; stroke: white; stroke-width: 15px;"/><rect x="354" y="114" width="522" height="126" class="djs-outline" style="fill: none;"/></g></g><g class="djs-group"><g class="djs-element djs-connection" data-element-id="Flow_1mo576b" style="display: block;"><g class="djs-visual"><path d="m  1020,240L1062,240 " style="fill: none; stroke-width: 2px; stroke: black; stroke-linejoin: round; marker-end: url('#sequenceflow-end-white-black-98o8gibeslk3ohesqf6inmlah');"/></g><polyline points="1020,240 1062,240 " class="djs-hit djs-hit-stroke" style="fill: none; stroke-opacity: 0; stroke: white; stroke-width: 15px;"/><rect x="1014" y="234" width="54" height="12" class="djs-outline" style="fill: none;"/></g></g><g class="djs-group"><g class="djs-element djs-connection" data-element-id="Flow_0ge0mqo" style="display: block;"><g class="djs-visual"><path d="m  1098,240L1140,240 " style="fill: none; stroke-width: 2px; stroke: black; stroke-linejoin: round; marker-end: url('#sequenceflow-end-white-black-98o8gibeslk3ohesqf6inmlah');"/></g><polyline points="1098,240 1140,240 " class="djs-hit djs-hit-stroke" style="fill: none; stroke-opacity: 0; stroke: white; stroke-width: 15px;"/><rect x="1092" y="234" width="54" height="12" class="djs-outline" style="fill: none;"/></g></g><g class="djs-group"><g class="djs-element djs-connection" data-element-id="Flow_0aoekyb" style="display: block;"><g class="djs-visual"><path d="m  1240,240L1272,240 " style="fill: none; stroke-width: 2px; stroke: black; stroke-linejoin: round; marker-end: url('#sequenceflow-end-white-black-98o8gibeslk3ohesqf6inmlah');"/></g><polyline points="1240,240 1272,240 " class="djs-hit djs-hit-stroke" style="fill: none; stroke-opacity: 0; stroke: white; stroke-width: 15px;"/><rect x="1234" y="234" width="44" height="12" class="djs-outline" style="fill: none;"/></g></g><g class="djs-group"><g class="djs-element djs-shape" data-element-id="StartEvent_1kr1qbg" style="display: block;" transform="matrix(1 0 0 1 242 222)"><g class="djs-visual"><circle cx="18" cy="18" r="18" style="stroke: black; stroke-width: 2px; fill: white; fill-opacity: 0.95;"/><circle cx="18" cy="18" r="11" style="stroke: black; stroke-width: 2px; fill: white;"/><path d="M 18,18 l 2.25,-7.5 m -2.25,7.5 l 5.25,1.5 " style="fill: none; stroke-width: 2px; stroke: black; stroke-linecap: square;"/><path d="M 18,18 m 0,7.5 l -0,2.25 " transform="rotate(0,18,18)" style="fill: none; stroke-width: 1px; stroke: black; stroke-linecap: square;"/><path d="M 18,18 m 0,7.5 l -0,2.25 " transform="rotate(30,18,18)" style="fill: none; stroke-width: 1px; stroke: black; stroke-linecap: square;"/><path d="M 18,18 m 0,7.5 l -0,2.25 " transform="rotate(60,18,18)" style="fill: none; stroke-width: 1px; stroke: black; stroke-linecap: square;"/><path d="M 18,18 m 0,7.5 l -0,2.25 " transform="rotate(90,18,18)" style="fill: none; stroke-width: 1px; stroke: black; stroke-linecap: square;"/><path d="M 18,18 m 0,7.5 l -0,2.25 " transform="rotate(120,18,18)" style="fill: none; stroke-width: 1px; stroke: black; stroke-linecap: square;"/><path d="M 18,18 m 0,7.5 l -0,2.25 " transform="rotate(150,18,18)" style="fill: none; stroke-width: 1px; stroke: black; stroke-linecap: square;"/><path d="M 18,18 m 0,7.5 l -0,2.25 " transform="rotate(180,18,18)" style="fill: none; stroke-width: 1px; stroke: black; stroke-linecap: square;"/><path d="M 18,18 m 0,7.5 l -0,2.25 " transform="rotate(210,18,18)" style="fill: none; stroke-width: 1px; stroke: black; stroke-linecap: square;"/><path d="M 18,18 m 0,7.5 l -0,2.25 " transform="rotate(240,18,18)" style="fill: none; stroke-width: 1px; stroke: black; stroke-linecap: square;"/><path d="M 18,18 m 0,7.5 l -0,2.25 " transform="rotate(270,18,18)" style="fill: none; stroke-width: 1px; stroke: black; stroke-linecap: square;"/><path d="M 18,18 m 0,7.5 l -0,2.25 " transform="rotate(300,18,18)" style="fill: none; stroke-width: 1px; stroke: black; stroke-linecap: square;"/><path d="M 18,18 m 0,7.5 l -0,2.25 " transform="rotate(330,18,18)" style="fill: none; stroke-width: 1px; stroke: black; stroke-linecap: square;"/></g><rect class="djs-hit djs-hit-all" x="0" y="0" width="36" height="36" style="fill: none; stroke-opacity: 0; stroke: white; stroke-width: 15px;"/><rect x="-6" y="-6" width="48" height="48" class="djs-outline" style="fill: none;"/></g></g><g class="djs-group"><g class="djs-element djs-shape" data-element-id="Gateway_1dm6slj" style="display: block;" transform="matrix(1 0 0 1 445 215)"><g class="djs-visual"><polygon points="25,0 50,25 25,50 0,25" style="stroke: black; stroke-width: 2px; fill: white; fill-opacity: 0.95;"/><path d="m 16,15 7.42857142857143,9.714285714285715 -7.42857142857143,9.714285714285715 3.428571428571429,0 5.714285714285715,-7.464228571428572 5.714285714285715,7.464228571428572 3.428571428571429,0 -7.42857142857143,-9.714285714285715 7.42857142857143,-9.714285714285715 -3.428571428571429,0 -5.714285714285715,7.464228571428572 -5.714285714285715,-7.464228571428572 -3.428571428571429,0 z" style="fill: black; stroke-width: 1px; stroke: black;"/></g><rect class="djs-hit djs-hit-all" x="0" y="0" width="50" height="50" style="fill: none; stroke-opacity: 0; stroke: white; stroke-width: 15px;"/><rect x="-6" y="-6" width="62" height="62" class="djs-outline" style="fill: none;"/></g></g><g class="djs-group"><g class="djs-element djs-shape" data-element-id="Activity_0x7sohr" style="display: block;" transform="matrix(1 0 0 1 700 264)"><g class="djs-visual"><rect x="0" y="0" width="100" height="80" rx="10" ry="10" style="stroke: black; stroke-width: 2px; fill: white; fill-opacity: 0.95;"/><text lineHeight="1.2" class="djs-label" style="font-family: Arial, sans-serif; font-size: 12px; font-weight: normal; fill: black;"><tspan x="16.6484375" y="43.599999999999994">Atividade A4</tspan></text></g><rect class="djs-hit djs-hit-all" x="0" y="0" width="100" height="80" style="fill: none; stroke-opacity: 0; stroke: white; stroke-width: 15px;"/><rect x="-6" y="-6" width="112" height="92" class="djs-outline" style="fill: none;"/></g></g><g class="djs-group"><g class="djs-element djs-shape" data-element-id="Gateway_1x5bcs8" style="display: block;" transform="matrix(1 0 0 1 826 215)"><g class="djs-visual"><polygon points="25,0 50,25 25,50 0,25" style="stroke: black; stroke-width: 2px; fill: white; fill-opacity: 0.95;"/><path d="m 16,15 7.42857142857143,9.714285714285715 -7.42857142857143,9.714285714285715 3.428571428571429,0 5.714285714285715,-7.464228571428572 5.714285714285715,7.464228571428572 3.428571428571429,0 -7.42857142857143,-9.714285714285715 7.42857142857143,-9.714285714285715 -3.428571428571429,0 -5.714285714285715,7.464228571428572 -5.714285714285715,-7.464228571428572 -3.428571428571429,0 z" style="fill: black; stroke-width: 1px; stroke: black;"/></g><rect class="djs-hit djs-hit-all" x="0" y="0" width="50" height="50" style="fill: none; stroke-opacity: 0; stroke: white; stroke-width: 15px;"/><rect x="-6" y="-6" width="62" height="62" class="djs-outline" style="fill: none;"/></g></g><g class="djs-group"><g class="djs-element djs-shape" data-element-id="Event_0yyxuut" style="display: block;" transform="matrix(1 0 0 1 1062 222)"><g class="djs-visual"><circle cx="18" cy="18" r="18" style="stroke: black; stroke-width: 1px; fill: white; fill-opacity: 0.95;"/><circle cx="18" cy="18" r="15" style="stroke: black; stroke-width: 1px; fill: none;"/><path d="M 10.5,8.5 l 14.5,0 l 0,18 l -14.5,0 Z M 12.5,11.5 l 10.5,0 M 12.5,14.5 l 10.5,0 M 12.5,17.5 l 10.5,0 M 12.5,20.5 l 10.5,0 M 12.5,23.5 l 10.5,0 M 12.5,26.5 l 10.5,0 " style="fill: none; stroke-width: 1px; stroke: black;"/></g><rect class="djs-hit djs-hit-all" x="0" y="0" width="36" height="36" style="fill: none; stroke-opacity: 0; stroke: white; stroke-width: 15px;"/><rect x="-6" y="-6" width="48" height="48" class="djs-outline" style="fill: none;"/></g></g><g class="djs-group"><g class="djs-element djs-shape" data-element-id="Event_00bttn2" style="display: block;" transform="matrix(1 0 0 1 1272 222)"><g class="djs-visual"><circle cx="18" cy="18" r="18" style="stroke: black; stroke-width: 4px; fill: white; fill-opacity: 0.95;"/></g><rect class="djs-hit djs-hit-all" x="0" y="0" width="36" height="36" style="fill: none; stroke-opacity: 0; stroke: white; stroke-width: 15px;"/><rect x="-6" y="-6" width="48" height="48" class="djs-outline" style="fill: none;"/></g></g><g class="djs-group"><g class="djs-element djs-shape" data-element-id="Activity_1jd5v2e" style="display: block;" transform="matrix(1 0 0 1 920 200)"><g class="djs-visual"><rect x="0" y="0" width="100" height="80" rx="10" ry="10" style="stroke: black; stroke-width: 2px; fill: white; fill-opacity: 0.95;"/><text lineHeight="1.2" class="djs-label" style="font-family: Arial, sans-serif; font-size: 12px; font-weight: normal; fill: black;"><tspan x="16.6484375" y="43.599999999999994">Atividade A5</tspan></text><path d="m 5.984999999999999,4.997999999999999 l 0,14 l 21,0 l 0,-14 z l 10.5,6 l 10.5,-6" style="fill: black; stroke-width: 1px; stroke: white;"/></g><rect class="djs-hit djs-hit-all" x="0" y="0" width="100" height="80" style="fill: none; stroke-opacity: 0; stroke: white; stroke-width: 15px;"/><rect x="-6" y="-6" width="112" height="92" class="djs-outline" style="fill: none;"/></g></g><g class="djs-group"><g class="djs-element djs-shape" data-element-id="Event_1y1kh2k" style="display: block;" transform="matrix(1 0 0 1 732 165)"><g class="djs-visual"><circle cx="18" cy="18" r="18" style="stroke: black; stroke-width: 1px; fill: white; fill-opacity: 0.95;"/><circle cx="18" cy="18" r="15" style="stroke: black; stroke-width: 1px; fill: none;"/><path d="m 8.459999999999999,11.34 l 0,12.6 l 18.900000000000002,0 l 0,-12.6 z l 9.450000000000001,5.4 l 9.450000000000001,-5.4" style="fill: white; stroke-width: 1px; stroke: black;"/></g><rect class="djs-hit djs-hit-all" x="0" y="0" width="36" height="36" style="fill: none; stroke-opacity: 0; stroke: white; stroke-width: 15px;"/><rect x="-6" y="-6" width="48" height="48" class="djs-outline" style="fill: none;"/></g></g><g class="djs-group"><g class="djs-element djs-shape" data-element-id="Activity_01wjh87" style="display: block;" transform="matrix(1 0 0 1 550 143)"><g class="djs-visual"><rect x="0" y="0" width="100" height="80" rx="10" ry="10" style="stroke: black; stroke-width: 2px; fill: white; fill-opacity: 0.95;"/><text lineHeight="1.2" class="djs-label" style="font-family: Arial, sans-serif; font-size: 12px; font-weight: normal; fill: black;"><tspan x="16.6484375" y="43.599999999999994">Atividade A2</tspan></text><path d="m 15,20 c 9.966553,-6.27276 -8.000926,-7.91932 2.968968,-14.938 l -8.802728,0 c -10.969894,7.01868 6.997585,8.66524 -2.968967,14.938 z m -7,-12 l 5,0 m -4.5,3 l 4.5,0 m -3,3 l 5,0m -4,3 l 5,0" style="fill: none; stroke-width: 1px; stroke: black;"/></g><rect class="djs-hit djs-hit-all" x="0" y="0" width="100" height="80" style="fill: none; stroke-opacity: 0; stroke: white; stroke-width: 15px;"/><rect x="-6" y="-6" width="112" height="92" class="djs-outline" style="fill: none;"/></g></g><g class="djs-group"><g class="djs-element djs-shape" data-element-id="Activity_0gi5ka5" style="display: block;" transform="matrix(1 0 0 1 550 264)"><g class="djs-visual"><rect x="0" y="0" width="100" height="80" rx="10" ry="10" style="stroke: black; stroke-width: 2px; fill: white; fill-opacity: 0.95;"/><text lineHeight="1.2" class="djs-label" style="font-family: Arial, sans-serif; font-size: 12px; font-weight: normal; fill: black;"><tspan x="16.6484375" y="43.599999999999994">Atividade A3</tspan></text><path d="m 12,18 v -1.71335 c 0.352326,-0.0705 0.703932,-0.17838 1.047628,-0.32133 0.344416,-0.14465 0.665822,-0.32133 0.966377,-0.52145 l 1.19431,1.18005 1.567487,-1.57688 -1.195028,-1.18014 c 0.403376,-0.61394 0.683079,-1.29908 0.825447,-2.01824 l 1.622133,-0.01 v -2.2196 l -1.636514,0.01 c -0.07333,-0.35153 -0.178319,-0.70024 -0.323564,-1.04372 -0.145244,-0.34406 -0.321407,-0.6644 -0.522735,-0.96217 l 1.131035,-1.13631 -1.583305,-1.56293 -1.129598,1.13589 c -0.614052,-0.40108 -1.302883,-0.68093 -2.022633,-0.82247 l 0.0093,-1.61852 h -2.241173 l 0.0042,1.63124 c -0.353763,0.0736 -0.705369,0.17977 -1.049785,0.32371 -0.344415,0.14437 -0.665102,0.32092 -0.9635006,0.52046 l -1.1698628,-1.15823 -1.5667691,1.5792 1.1684265,1.15669 c -0.4026573,0.61283 -0.68308,1.29797 -0.8247287,2.01713 l -1.6588041,0.003 v 2.22174 l 1.6724648,-0.006 c 0.073327,0.35077 0.1797598,0.70243 0.3242851,1.04472 0.1452428,0.34448 0.3214064,0.6644 0.5227339,0.96066 l -1.1993431,1.19723 1.5840256,1.56011 1.1964668,-1.19348 c 0.6140517,0.40346 1.3028827,0.68232 2.0233517,0.82331 l 7.19e-4,1.69892 h 2.226848 z m 0.221462,-3.9957 c -1.788948,0.7502 -3.8576,-0.0928 -4.6097055,-1.87438 -0.7521065,-1.78321 0.090598,-3.84627 1.8802645,-4.59604 1.78823,-0.74936 3.856881,0.0929 4.608987,1.87437 0.752106,1.78165 -0.0906,3.84612 -1.879546,4.59605 z" style="fill: white; stroke-width: 1px; stroke: black;"/><path d="m 17.2,18 c -1.788948,0.7502 -3.8576,-0.0928 -4.6097055,-1.87438 -0.7521065,-1.78321 0.090598,-3.84627 1.8802645,-4.59604 1.78823,-0.74936 3.856881,0.0929 4.608987,1.87437 0.752106,1.78165 -0.0906,3.84612 -1.879546,4.59605 z" style="fill: white; stroke-width: 0px; stroke: black;"/><path d="m 17,22 v -1.71335 c 0.352326,-0.0705 0.703932,-0.17838 1.047628,-0.32133 0.344416,-0.14465 0.665822,-0.32133 0.966377,-0.52145 l 1.19431,1.18005 1.567487,-1.57688 -1.195028,-1.18014 c 0.403376,-0.61394 0.683079,-1.29908 0.825447,-2.01824 l 1.622133,-0.01 v -2.2196 l -1.636514,0.01 c -0.07333,-0.35153 -0.178319,-0.70024 -0.323564,-1.04372 -0.145244,-0.34406 -0.321407,-0.6644 -0.522735,-0.96217 l 1.131035,-1.13631 -1.583305,-1.56293 -1.129598,1.13589 c -0.614052,-0.40108 -1.302883,-0.68093 -2.022633,-0.82247 l 0.0093,-1.61852 h -2.241173 l 0.0042,1.63124 c -0.353763,0.0736 -0.705369,0.17977 -1.049785,0.32371 -0.344415,0.14437 -0.665102,0.32092 -0.9635006,0.52046 l -1.1698628,-1.15823 -1.5667691,1.5792 1.1684265,1.15669 c -0.4026573,0.61283 -0.68308,1.29797 -0.8247287,2.01713 l -1.6588041,0.003 v 2.22174 l 1.6724648,-0.006 c 0.073327,0.35077 0.1797598,0.70243 0.3242851,1.04472 0.1452428,0.34448 0.3214064,0.6644 0.5227339,0.96066 l -1.1993431,1.19723 1.5840256,1.56011 1.1964668,-1.19348 c 0.6140517,0.40346 1.3028827,0.68232 2.0233517,0.82331 l 7.19e-4,1.69892 h 2.226848 z m 0.221462,-3.9957 c -1.788948,0.7502 -3.8576,-0.0928 -4.6097055,-1.87438 -0.7521065,-1.78321 0.090598,-3.84627 1.8802645,-4.59604 1.78823,-0.74936 3.856881,0.0929 4.608987,1.87437 0.752106,1.78165 -0.0906,3.84612 -1.879546,4.59605 z" style="fill: white; stroke-width: 1px; stroke: black;"/></g><rect class="djs-hit djs-hit-all" x="0" y="0" width="100" height="80" style="fill: none; stroke-opacity: 0; stroke: white; stroke-width: 15px;"/><rect x="-6" y="-6" width="112" height="92" class="djs-outline" style="fill: none;"/></g></g><g class="djs-group"><g class="djs-element djs-shape" data-element-id="Activity_0wj3y78" style="display: block;" transform="matrix(1 0 0 1 310 200)"><g class="djs-visual"><rect x="0" y="0" width="100" height="80" rx="10" ry="10" style="stroke: black; stroke-width: 2px; fill: white; fill-opacity: 0.95;"/><text lineHeight="1.2" class="djs-label" style="font-family: Arial, sans-serif; font-size: 12px; font-weight: normal; fill: black;"><tspan x="16.8046875" y="43.599999999999994">Atividade A1</tspan></text><path d="m 17,15 c 0.234,-0.01 5.604,0.008 8.029,0.004 0.808,0 1.271,-0.172 1.417,-0.752 0.227,-0.898 -0.334,-1.314 -1.338,-1.316 -2.467,-0.01 -7.886,-0.004 -8.108,-0.004 -0.014,-0.079 0.016,-0.533 0,-0.61 0.195,-0.042 8.507,0.006 9.616,0.002 0.877,-0.007 1.35,-0.438 1.353,-1.208 0.003,-0.768 -0.479,-1.09 -1.35,-1.091 -2.968,-0.002 -9.619,-0.013 -9.619,-0.013 v -0.591 c 0,0 5.052,-0.016 7.225,-0.016 0.888,-0.002 1.354,-0.416 1.351,-1.193 -0.006,-0.761 -0.492,-1.196 -1.361,-1.196 -3.473,-0.005 -10.86,-0.003 -11.0829995,-0.003 -0.022,-0.047 -0.045,-0.094 -0.069,-0.139 0.3939995,-0.319 2.0409995,-1.626 2.4149995,-2.017 0.469,-0.4870005 0.519,-1.1650005 0.162,-1.6040005 -0.414,-0.511 -0.973,-0.5 -1.48,-0.236 -1.4609995,0.764 -6.5999995,3.6430005 -7.7329995,4.2710005 -0.9,0.499 -1.516,1.253 -1.882,2.19 -0.37000002,0.95 -0.17,2.01 -0.166,2.979 0.004,0.718 -0.27300002,1.345 -0.055,2.063 0.629,2.087 2.425,3.312 4.859,3.318 4.6179995,0.014 9.2379995,-0.139 13.8569995,-0.158 0.755,-0.004 1.171,-0.301 1.182,-1.033 0.012,-0.754 -0.423,-0.969 -1.183,-0.973 -1.778,-0.01 -5.824,-0.004 -6.04,-0.004 10e-4,-0.084 0.003,-0.586 10e-4,-0.67 z" style="fill: white; stroke-width: 0.5px; stroke: black;"/></g><rect class="djs-hit djs-hit-all" x="0" y="0" width="100" height="80" style="fill: none; stroke-opacity: 0; stroke: white; stroke-width: 15px;"/><rect x="-6" y="-6" width="112" height="92" class="djs-outline" style="fill: none;"/></g></g><g class="djs-group"><g class="djs-element djs-shape" data-element-id="Activity_1aciifh" style="display: block;" transform="matrix(1 0 0 1 242 377)"><g class="djs-visual"><rect x="0" y="0" width="308" height="160" rx="10" ry="10" style="stroke: black; stroke-width: 2px; fill: white; fill-opacity: 0.95; stroke-dasharray: 1, 2;"/><text lineHeight="1.2" class="djs-label" style="font-family: Arial, sans-serif; font-size: 12px; font-weight: normal; fill: black;"><tspan x="89.4609375" y="15.799999999999999">Subprocesso Evento A7</tspan></text></g><rect x="-6" y="-6" width="320" height="172" class="djs-outline" style="fill: none;"/><rect class="djs-hit djs-hit-click-stroke" x="0" y="0" width="308" height="160" style="fill: none; stroke-opacity: 0; stroke: white; stroke-width: 15px;"/><rect class="djs-hit djs-hit-all" x="0" y="0" width="308" height="30" style="fill: none; stroke-opacity: 0; stroke: white; stroke-width: 15px;"/></g><g class="djs-children"><g class="djs-group"><g class="djs-element djs-connection" data-element-id="Flow_0pnmcmm" style="display: block;"><g class="djs-visual"><path d="m  308,477L350,477 " style="fill: none; stroke-width: 2px; stroke: black; stroke-linejoin: round; marker-end: url('#sequenceflow-end-white-black-98o8gibeslk3ohesqf6inmlah');"/></g><polyline points="308,477 350,477 " class="djs-hit djs-hit-stroke" style="fill: none; stroke-opacity: 0; stroke: white; stroke-width: 15px;"/><rect x="302" y="471" width="54" height="12" class="djs-outline" style="fill: none;"/></g></g><g class="djs-group"><g class="djs-element djs-connection" data-element-id="Flow_0cvqzvl" style="display: block;"><g class="djs-visual"><path d="m  450,477L482,477 " style="fill: none; stroke-width: 2px; stroke: black; stroke-linejoin: round; marker-end: url('#sequenceflow-end-white-black-98o8gibeslk3ohesqf6inmlah');"/></g><polyline points="450,477 482,477 " class="djs-hit djs-hit-stroke" style="fill: none; stroke-opacity: 0; stroke: white; stroke-width: 15px;"/><rect x="444" y="471" width="44" height="12" class="djs-outline" style="fill: none;"/></g></g><g class="djs-group"><g class="djs-element djs-shape" data-element-id="Event_04q2q6f" style="display: block;" transform="matrix(1 0 0 1 272 459)"><g class="djs-visual"><circle cx="18" cy="18" r="18" style="stroke: black; stroke-width: 2px; fill: white; stroke-dasharray: 6; stroke-linecap: round; fill-opacity: 0.95;"/><circle cx="18" cy="18" r="11" style="stroke: black; stroke-width: 2px; fill: white;"/><path d="M 18,18 l 2.25,-7.5 m -2.25,7.5 l 5.25,1.5 " style="fill: none; stroke-width: 2px; stroke: black; stroke-linecap: square;"/><path d="M 18,18 m 0,7.5 l -0,2.25 " transform="rotate(0,18,18)" style="fill: none; stroke-width: 1px; stroke: black; stroke-linecap: square;"/><path d="M 18,18 m 0,7.5 l -0,2.25 " transform="rotate(30,18,18)" style="fill: none; stroke-width: 1px; stroke: black; stroke-linecap: square;"/><path d="M 18,18 m 0,7.5 l -0,2.25 " transform="rotate(60,18,18)" style="fill: none; stroke-width: 1px; stroke: black; stroke-linecap: square;"/><path d="M 18,18 m 0,7.5 l -0,2.25 " transform="rotate(90,18,18)" style="fill: none; stroke-width: 1px; stroke: black; stroke-linecap: square;"/><path d="M 18,18 m 0,7.5 l -0,2.25 " transform="rotate(120,18,18)" style="fill: none; stroke-width: 1px; stroke: black; stroke-linecap: square;"/><path d="M 18,18 m 0,7.5 l -0,2.25 " transform="rotate(150,18,18)" style="fill: none; stroke-width: 1px; stroke: black; stroke-linecap: square;"/><path d="M 18,18 m 0,7.5 l -0,2.25 " transform="rotate(180,18,18)" style="fill: none; stroke-width: 1px; stroke: black; stroke-linecap: square;"/><path d="M 18,18 m 0,7.5 l -0,2.25 " transform="rotate(210,18,18)" style="fill: none; stroke-width: 1px; stroke: black; stroke-linecap: square;"/><path d="M 18,18 m 0,7.5 l -0,2.25 " transform="rotate(240,18,18)" style="fill: none; stroke-width: 1px; stroke: black; stroke-linecap: square;"/><path d="M 18,18 m 0,7.5 l -0,2.25 " transform="rotate(270,18,18)" style="fill: none; stroke-width: 1px; stroke: black; stroke-linecap: square;"/><path d="M 18,18 m 0,7.5 l -0,2.25 " transform="rotate(300,18,18)" style="fill: none; stroke-width: 1px; stroke: black; stroke-linecap: square;"/><path d="M 18,18 m 0,7.5 l -0,2.25 " transform="rotate(330,18,18)" style="fill: none; stroke-width: 1px; stroke: black; stroke-linecap: square;"/></g><rect class="djs-hit djs-hit-all" x="0" y="0" width="36" height="36" style="fill: none; stroke-opacity: 0; stroke: white; stroke-width: 15px;"/><rect x="-6" y="-6" width="48" height="48" class="djs-outline" style="fill: none;"/></g></g><g class="djs-group"><g class="djs-element djs-shape" data-element-id="Event_1pelx0q" style="display: block;" transform="matrix(1 0 0 1 482 459)"><g class="djs-visual"><circle cx="18" cy="18" r="18" style="stroke: black; stroke-width: 4px; fill: white; fill-opacity: 0.95;"/><path d="m 8.459999999999999,11.34 l 0,12.6 l 18.900000000000002,0 l 0,-12.6 z l 9.450000000000001,5.4 l 9.450000000000001,-5.4" style="fill: black; stroke-width: 1px; stroke: white;"/></g><rect class="djs-hit djs-hit-all" x="0" y="0" width="36" height="36" style="fill: none; stroke-opacity: 0; stroke: white; stroke-width: 15px;"/><rect x="-6" y="-6" width="48" height="48" class="djs-outline" style="fill: none;"/></g></g><g class="djs-group"><g class="djs-element djs-shape" data-element-id="Activity_05idzaq" style="display: block;" transform="matrix(1 0 0 1 350 437)"><g class="djs-visual"><rect x="0" y="0" width="100" height="80" rx="10" ry="10" style="stroke: black; stroke-width: 2px; fill: white; fill-opacity: 0.95;"/><text lineHeight="1.2" class="djs-label" style="font-family: Arial, sans-serif; font-size: 12px; font-weight: normal; fill: black;"><tspan x="10.1328125" y="43.599999999999994">Atividade A7_1</tspan></text><path d="m 12,18 v -1.71335 c 0.352326,-0.0705 0.703932,-0.17838 1.047628,-0.32133 0.344416,-0.14465 0.665822,-0.32133 0.966377,-0.52145 l 1.19431,1.18005 1.567487,-1.57688 -1.195028,-1.18014 c 0.403376,-0.61394 0.683079,-1.29908 0.825447,-2.01824 l 1.622133,-0.01 v -2.2196 l -1.636514,0.01 c -0.07333,-0.35153 -0.178319,-0.70024 -0.323564,-1.04372 -0.145244,-0.34406 -0.321407,-0.6644 -0.522735,-0.96217 l 1.131035,-1.13631 -1.583305,-1.56293 -1.129598,1.13589 c -0.614052,-0.40108 -1.302883,-0.68093 -2.022633,-0.82247 l 0.0093,-1.61852 h -2.241173 l 0.0042,1.63124 c -0.353763,0.0736 -0.705369,0.17977 -1.049785,0.32371 -0.344415,0.14437 -0.665102,0.32092 -0.9635006,0.52046 l -1.1698628,-1.15823 -1.5667691,1.5792 1.1684265,1.15669 c -0.4026573,0.61283 -0.68308,1.29797 -0.8247287,2.01713 l -1.6588041,0.003 v 2.22174 l 1.6724648,-0.006 c 0.073327,0.35077 0.1797598,0.70243 0.3242851,1.04472 0.1452428,0.34448 0.3214064,0.6644 0.5227339,0.96066 l -1.1993431,1.19723 1.5840256,1.56011 1.1964668,-1.19348 c 0.6140517,0.40346 1.3028827,0.68232 2.0233517,0.82331 l 7.19e-4,1.69892 h 2.226848 z m 0.221462,-3.9957 c -1.788948,0.7502 -3.8576,-0.0928 -4.6097055,-1.87438 -0.7521065,-1.78321 0.090598,-3.84627 1.8802645,-4.59604 1.78823,-0.74936 3.856881,0.0929 4.608987,1.87437 0.752106,1.78165 -0.0906,3.84612 -1.879546,4.59605 z" style="fill: white; stroke-width: 1px; stroke: black;"/><path d="m 17.2,18 c -1.788948,0.7502 -3.8576,-0.0928 -4.6097055,-1.87438 -0.7521065,-1.78321 0.090598,-3.84627 1.8802645,-4.59604 1.78823,-0.74936 3.856881,0.0929 4.608987,1.87437 0.752106,1.78165 -0.0906,3.84612 -1.879546,4.59605 z" style="fill: white; stroke-width: 0px; stroke: black;"/><path d="m 17,22 v -1.71335 c 0.352326,-0.0705 0.703932,-0.17838 1.047628,-0.32133 0.344416,-0.14465 0.665822,-0.32133 0.966377,-0.52145 l 1.19431,1.18005 1.567487,-1.57688 -1.195028,-1.18014 c 0.403376,-0.61394 0.683079,-1.29908 0.825447,-2.01824 l 1.622133,-0.01 v -2.2196 l -1.636514,0.01 c -0.07333,-0.35153 -0.178319,-0.70024 -0.323564,-1.04372 -0.145244,-0.34406 -0.321407,-0.6644 -0.522735,-0.96217 l 1.131035,-1.13631 -1.583305,-1.56293 -1.129598,1.13589 c -0.614052,-0.40108 -1.302883,-0.68093 -2.022633,-0.82247 l 0.0093,-1.61852 h -2.241173 l 0.0042,1.63124 c -0.353763,0.0736 -0.705369,0.17977 -1.049785,0.32371 -0.344415,0.14437 -0.665102,0.32092 -0.9635006,0.52046 l -1.1698628,-1.15823 -1.5667691,1.5792 1.1684265,1.15669 c -0.4026573,0.61283 -0.68308,1.29797 -0.8247287,2.01713 l -1.6588041,0.003 v 2.22174 l 1.6724648,-0.006 c 0.073327,0.35077 0.1797598,0.70243 0.3242851,1.04472 0.1452428,0.34448 0.3214064,0.6644 0.5227339,0.96066 l -1.1993431,1.19723 1.5840256,1.56011 1.1964668,-1.19348 c 0.6140517,0.40346 1.3028827,0.68232 2.0233517,0.82331 l 7.19e-4,1.69892 h 2.226848 z m 0.221462,-3.9957 c -1.788948,0.7502 -3.8576,-0.0928 -4.6097055,-1.87438 -0.7521065,-1.78321 0.090598,-3.84627 1.8802645,-4.59604 1.78823,-0.74936 3.856881,0.0929 4.608987,1.87437 0.752106,1.78165 -0.0906,3.84612 -1.879546,4.59605 z" style="fill: white; stroke-width: 1px; stroke: black;"/></g><rect class="djs-hit djs-hit-all" x="0" y="0" width="100" height="80" style="fill: none; stroke-opacity: 0; stroke: white; stroke-width: 15px;"/><rect x="-6" y="-6" width="112" height="92" class="djs-outline" style="fill: none;"/></g></g></g></g><g class="djs-group"><g class="djs-element djs-shape" data-element-id="Activity_0e9gtzi" style="display: block;" transform="matrix(1 0 0 1 1140 200)"><g class="djs-visual"><rect x="0" y="0" width="100" height="80" rx="10" ry="10" style="stroke: black; stroke-width: 2px; fill: white; fill-opacity: 0.95;"/><text lineHeight="1.2" class="djs-label" style="font-family: Arial, sans-serif; font-size: 12px; font-weight: normal; fill: black;"><tspan x="16.6484375" y="43.599999999999994">Atividade A6</tspan></text><rect x="0" y="0" width="14" height="14" rx="0" ry="0" style="stroke: black; stroke-width: 1px; fill: white;" transform="matrix(1 0 0 1 42.5 60)"/><path d="m42.5,60 m 7,2 l 0,10 m -5,-5 l 10,0" data-marker="sub-process" style="fill: white; stroke-width: 2px; stroke: black;"/></g><rect x="-6" y="-6" width="112" height="92" class="djs-outline" style="fill: none;"/><rect class="djs-hit djs-hit-all" x="0" y="0" width="100" height="80" style="fill: none; stroke-opacity: 0; stroke: white; stroke-width: 15px;"/></g></g></g></g><g class="djs-group"><g class="djs-element djs-shape" data-element-id="Participant_1efgxwo" style="display: block;" transform="matrix(1 0 0 1 160 591)"><g class="djs-visual"><rect x="0" y="0" width="1190" height="279" rx="0" ry="0" style="stroke: black; stroke-width: 2px; fill: white; fill-opacity: 0.95;"/><polyline points="30,0 30,279 " style="fill: none; stroke: black; stroke-width: 2px;"/><text lineHeight="1.2" class="djs-label" style="font-family: Arial, sans-serif; font-size: 12px; font-weight: normal; fill: black;" transform="matrix(-1.83697e-16 -1 1 -1.83697e-16 0 279)"><tspan x="112.8125" y="18.6">Piscina_B</tspan></text></g><rect x="-6" y="-6" width="1202" height="291" class="djs-outline" style="fill: none;"/><rect class="djs-hit djs-hit-click-stroke" x="0" y="0" width="1190" height="279" style="fill: none; stroke-opacity: 0; stroke: white; stroke-width: 15px;"/><rect class="djs-hit djs-hit-all" x="0" y="0" width="30" height="279" style="fill: none; stroke-opacity: 0; stroke: white; stroke-width: 15px;"/></g><g class="djs-children"><g class="djs-group"><g class="djs-element djs-connection" data-element-id="Flow_00348bd" style="display: block;"><g class="djs-visual"><path d="m  328,691L380,691 " style="fill: none; stroke-width: 2px; stroke: black; stroke-linejoin: round; marker-end: url('#sequenceflow-end-white-black-98o8gibeslk3ohesqf6inmlah');"/></g><polyline points="328,691 380,691 " class="djs-hit djs-hit-stroke" style="fill: none; stroke-opacity: 0; stroke: white; stroke-width: 15px;"/><rect x="322" y="685" width="64" height="12" class="djs-outline" style="fill: none;"/></g></g><g class="djs-group"><g class="djs-element djs-connection" data-element-id="Flow_05m93yo" style="display: block;"><g class="djs-visual"><path d="m  480,691L532,691 " style="fill: none; stroke-width: 2px; stroke: black; stroke-linejoin: round; marker-end: url('#sequenceflow-end-white-black-98o8gibeslk3ohesqf6inmlah');"/></g><polyline points="480,691 532,691 " class="djs-hit djs-hit-stroke" style="fill: none; stroke-opacity: 0; stroke: white; stroke-width: 15px;"/><rect x="474" y="685" width="64" height="12" class="djs-outline" style="fill: none;"/></g></g><g class="djs-group"><g class="djs-element djs-connection" data-element-id="Flow_0fn75nr" style="display: block;"><g class="djs-visual"><path d="m  568,691L630,691 " style="fill: none; stroke-width: 2px; stroke: black; stroke-linejoin: round; marker-end: url('#sequenceflow-end-white-black-98o8gibeslk3ohesqf6inmlah');"/></g><polyline points="568,691 630,691 " class="djs-hit djs-hit-stroke" style="fill: none; stroke-opacity: 0; stroke: white; stroke-width: 15px;"/><rect x="562" y="685" width="74" height="12" class="djs-outline" style="fill: none;"/></g></g><g class="djs-group"><g class="djs-element djs-connection" data-element-id="Flow_0ud5isy" style="display: block;"><g class="djs-visual"><path d="m  730,691L772,691 " style="fill: none; stroke-width: 2px; stroke: black; stroke-linejoin: round; marker-end: url('#sequenceflow-end-white-black-98o8gibeslk3ohesqf6inmlah');"/></g><polyline points="730,691 772,691 " class="djs-hit djs-hit-stroke" style="fill: none; stroke-opacity: 0; stroke: white; stroke-width: 15px;"/><rect x="724" y="685" width="54" height="12" class="djs-outline" style="fill: none;"/></g></g><g class="djs-group"><g class="djs-element djs-shape" data-element-id="Activity_1qylrko" style="display: block;" transform="matrix(1 0 0 1 380 651)"><g class="djs-visual"><rect x="0" y="0" width="100" height="80" rx="10" ry="10" style="stroke: black; stroke-width: 2px; fill: white; fill-opacity: 0.95;"/><text lineHeight="1.2" class="djs-label" style="font-family: Arial, sans-serif; font-size: 12px; font-weight: normal; fill: black;"><tspan x="16.8046875" y="43.599999999999994">Atividade B1</tspan></text><path d="m 50,73 c 3.526979,0 6.386161,-2.829858 6.386161,-6.320661 0,-3.490806 -2.859182,-6.320661 -6.386161,-6.320661 -3.526978,0 -6.38616,2.829855 -6.38616,6.320661 0,1.745402 0.714797,3.325567 1.870463,4.469381 0.577834,0.571908 1.265885,1.034728 2.029916,1.35457 l -0.718163,-3.909793 m 0.718163,3.909793 -3.885211,0.802902" data-marker="loop" style="fill: white; stroke-width: 1px; stroke: black; stroke-linecap: round; stroke-miterlimit: 0.5;"/></g><rect class="djs-hit djs-hit-all" x="0" y="0" width="100" height="80" style="fill: none; stroke-opacity: 0; stroke: white; stroke-width: 15px;"/><rect x="-6" y="-6" width="112" height="92" class="djs-outline" style="fill: none;"/></g></g><g class="djs-group"><g class="djs-element djs-shape" data-element-id="Event_0zwlbwz" style="display: block;" transform="matrix(1 0 0 1 772 673)"><g class="djs-visual"><circle cx="18" cy="18" r="18" style="stroke: black; stroke-width: 4px; fill: white; fill-opacity: 0.95;"/></g><rect class="djs-hit djs-hit-all" x="0" y="0" width="36" height="36" style="fill: none; stroke-opacity: 0; stroke: white; stroke-width: 15px;"/><rect x="-6" y="-6" width="48" height="48" class="djs-outline" style="fill: none;"/></g></g><g class="djs-group"><g class="djs-element djs-shape" data-element-id="Event_0xyk8gw" style="display: block;" transform="matrix(1 0 0 1 292 673)"><g class="djs-visual"><circle cx="18" cy="18" r="18" style="stroke: black; stroke-width: 2px; fill: white; fill-opacity: 0.95;"/><path d="m 8.459999999999999,11.34 l 0,12.6 l 18.900000000000002,0 l 0,-12.6 z l 9.450000000000001,5.4 l 9.450000000000001,-5.4" style="fill: white; stroke-width: 1px; stroke: black;"/></g><rect class="djs-hit djs-hit-all" x="0" y="0" width="36" height="36" style="fill: none; stroke-opacity: 0; stroke: white; stroke-width: 15px;"/><rect x="-6" y="-6" width="48" height="48" class="djs-outline" style="fill: none;"/></g></g><g class="djs-group"><g class="djs-element djs-shape" data-element-id="Event_1f9btcz" style="display: block;" transform="matrix(1 0 0 1 532 673)"><g class="djs-visual"><circle cx="18" cy="18" r="18" style="stroke: black; stroke-width: 1px; fill: white; fill-opacity: 0.95;"/><circle cx="18" cy="18" r="15" style="stroke: black; stroke-width: 1px; fill: none;"/><circle cx="18" cy="18" r="11" style="stroke: black; stroke-width: 2px; fill: white;"/><path d="M 18,18 l 2.25,-7.5 m -2.25,7.5 l 5.25,1.5 " style="fill: none; stroke-width: 2px; stroke: black; stroke-linecap: square;"/><path d="M 18,18 m 0,7.5 l -0,2.25 " transform="rotate(0,18,18)" style="fill: none; stroke-width: 1px; stroke: black; stroke-linecap: square;"/><path d="M 18,18 m 0,7.5 l -0,2.25 " transform="rotate(30,18,18)" style="fill: none; stroke-width: 1px; stroke: black; stroke-linecap: square;"/><path d="M 18,18 m 0,7.5 l -0,2.25 " transform="rotate(60,18,18)" style="fill: none; stroke-width: 1px; stroke: black; stroke-linecap: square;"/><path d="M 18,18 m 0,7.5 l -0,2.25 " transform="rotate(90,18,18)" style="fill: none; stroke-width: 1px; stroke: black; stroke-linecap: square;"/><path d="M 18,18 m 0,7.5 l -0,2.25 " transform="rotate(120,18,18)" style="fill: none; stroke-width: 1px; stroke: black; stroke-linecap: square;"/><path d="M 18,18 m 0,7.5 l -0,2.25 " transform="rotate(150,18,18)" style="fill: none; stroke-width: 1px; stroke: black; stroke-linecap: square;"/><path d="M 18,18 m 0,7.5 l -0,2.25 " transform="rotate(180,18,18)" style="fill: none; stroke-width: 1px; stroke: black; stroke-linecap: square;"/><path d="M 18,18 m 0,7.5 l -0,2.25 " transform="rotate(210,18,18)" style="fill: none; stroke-width: 1px; stroke: black; stroke-linecap: square;"/><path d="M 18,18 m 0,7.5 l -0,2.25 " transform="rotate(240,18,18)" style="fill: none; stroke-width: 1px; stroke: black; stroke-linecap: square;"/><path d="M 18,18 m 0,7.5 l -0,2.25 " transform="rotate(270,18,18)" style="fill: none; stroke-width: 1px; stroke: black; stroke-linecap: square;"/><path d="M 18,18 m 0,7.5 l -0,2.25 " transform="rotate(300,18,18)" style="fill: none; stroke-width: 1px; stroke: black; stroke-linecap: square;"/><path d="M 18,18 m 0,7.5 l -0,2.25 " transform="rotate(330,18,18)" style="fill: none; stroke-width: 1px; stroke: black; stroke-linecap: square;"/></g><rect class="djs-hit djs-hit-all" x="0" y="0" width="36" height="36" style="fill: none; stroke-opacity: 0; stroke: white; stroke-width: 15px;"/><rect x="-6" y="-6" width="48" height="48" class="djs-outline" style="fill: none;"/></g></g><g class="djs-group"><g class="djs-element djs-shape" data-element-id="Activity_125y4r8" style="display: block;" transform="matrix(1 0 0 1 630 651)"><g class="djs-visual"><rect x="0" y="0" width="100" height="80" rx="10" ry="10" style="stroke: black; stroke-width: 2px; fill: white; fill-opacity: 0.95;"/><text lineHeight="1.2" class="djs-label" style="font-family: Arial, sans-serif; font-size: 12px; font-weight: normal; fill: black;"><tspan x="16.6484375" y="43.599999999999994">Atividade B2</tspan></text><path d="m 15,20 c 9.966553,-6.27276 -8.000926,-7.91932 2.968968,-14.938 l -8.802728,0 c -10.969894,7.01868 6.997585,8.66524 -2.968967,14.938 z m -7,-12 l 5,0 m -4.5,3 l 4.5,0 m -3,3 l 5,0m -4,3 l 5,0" style="fill: none; stroke-width: 1px; stroke: black;"/></g><rect class="djs-hit djs-hit-all" x="0" y="0" width="100" height="80" style="fill: none; stroke-opacity: 0; stroke: white; stroke-width: 15px;"/><rect x="-6" y="-6" width="112" height="92" class="djs-outline" style="fill: none;"/></g></g><g class="djs-group"><g class="djs-element djs-shape" data-element-id="DataObjectReference_0au23bc" style="display: block;" transform="matrix(1 0 0 1 662 775)"><g class="djs-visual"><path d="m 0,0 28.23529411764706,0 7.058823529411765,8.196721311475411 0,40.98360655737705 -35.294117647058826,0 0,-49.18032786885246 28.23529411764706,0 0,8.196721311475411 7.058823529411765,0" style="fill: white; stroke-width: 2px; stroke: black; fill-opacity: 0.95;"/><path d="m11.88,32 m 3,2 l 0,10 m 3,-10 l 0,10 m 3,-10 l 0,10" style="fill: none; stroke-width: 2px; stroke: black;"/></g><rect class="djs-hit djs-hit-all" x="0" y="0" width="36" height="50" style="fill: none; stroke-opacity: 0; stroke: white; stroke-width: 15px;"/><rect x="-6" y="-6" width="48" height="62" class="djs-outline" style="fill: none;"/></g></g></g></g><g class="djs-group"><g class="djs-element djs-shape" data-element-id="DataObjectReference_0au23bc_label" style="display: block;" transform="matrix(1 0 0 1 652 832)"><g class="djs-visual"><text lineHeight="1.2" class="djs-label" style="font-family: Arial, sans-serif; font-size: 11px; font-weight: normal; fill: black;"><tspan x="0" y="9.899999999999999">Coleção B3</tspan></text></g><rect class="djs-hit djs-hit-all" x="0" y="0" width="57" height="14" style="fill: none; stroke-opacity: 0; stroke: white; stroke-width: 15px;"/><rect x="-6" y="-6" width="69" height="26" class="djs-outline" style="fill: none;"/></g></g><g class="djs-group"><g class="djs-element djs-connection" data-element-id="Flow_1r9vcpb" style="display: block;"><g class="djs-visual"><path d="m  970,280L970,580 L310,580 L310,673 " style="fill: none; stroke-width: 1.5px; stroke: black; marker-end: url('#messageflow-end-white-black-98o8gibeslk3ohesqf6inmlah'); marker-start: url('#messageflow-start-white-black-98o8gibeslk3ohesqf6inmlah'); stroke-dasharray: 10, 12; stroke-linecap: round; stroke-linejoin: round;"/></g><polyline points="970,280 970,580 310,580 310,673 " class="djs-hit djs-hit-stroke" style="fill: none; stroke-opacity: 0; stroke: white; stroke-width: 15px;"/><rect x="304" y="274" width="672" height="405" class="djs-outline" style="fill: none;"/></g></g><g class="djs-group"><g class="djs-element djs-connection" data-element-id="DataOutputAssociation_1uf3jqq" style="display: block;"><g class="djs-visual"><polyline points="681,731 682,775 " style="fill: none; stroke: black; stroke-width: 2px; stroke-dasharray: 0.5, 5; stroke-linecap: round; stroke-linejoin: round; marker-end: url('#association-end-white-black-98o8gibeslk3ohesqf6inmlah');"/></g><polyline points="681,731 682,775 " class="djs-hit djs-hit-stroke" style="fill: none; stroke-opacity: 0; stroke: white; stroke-width: 15px;"/><rect x="675" y="725" width="13" height="56" class="djs-outline" style="fill: none;"/></g></g></svg>