<?xml version="1.0" encoding="utf-8"?>
<!-- created with bpmn-js / http://bpmn.io -->
<!DOCTYPE svg PUBLIC "-//W3C//DTD SVG 1.1//EN" "http://www.w3.org/Graphics/SVG/1.1/DTD/svg11.dtd">
<svg xmlns="http://www.w3.org/2000/svg" xmlns:xlink="http://www.w3.org/1999/xlink" width="1002" height="472" viewBox="174 64 1002 472" version="1.1"><defs><marker id="sequenceflow-end-white-black-f3dvd76i9dylka12z015nv608" viewBox="0 0 20 20" refX="11" refY="10" markerWidth="10" markerHeight="10" orient="auto"><path d="M 1 5 L 11 10 L 1 15 Z" style="fill: black; stroke-width: 1px; stroke-linecap: round; stroke-dasharray: 10000, 1; stroke: black;"/></marker></defs><g class="djs-group"><g class="djs-element djs-shape" data-element-id="Participant_1evwefs" style="display: block;" transform="matrix(1 0 0 1 180 70)"><g class="djs-visual"><rect x="0" y="0" width="990" height="460" rx="0" ry="0" style="stroke: black; stroke-width: 2px; fill: white; fill-opacity: 0.95;"/><polyline points="30,0 30,460 " style="fill: none; stroke: black; stroke-width: 2px;"/><text lineHeight="1.2" class="djs-label" style="font-family: Arial, sans-serif; font-size: 12px; font-weight: normal; fill: black;" transform="matrix(-1.83697e-16 -1 1 -1.83697e-16 0 460)"><tspan x="202.8212890625" y="18.6">Piscina_A</tspan></text></g><rect x="-6" y="-6" width="1002" height="472" class="djs-outline" style="fill: none;"/><rect class="djs-hit djs-hit-click-stroke" x="0" y="0" width="990" height="460" style="fill: none; stroke-opacity: 0; stroke: white; stroke-width: 15px;"/><rect class="djs-hit djs-hit-all" x="0" y="0" width="30" height="460" style="fill: none; stroke-opacity: 0; stroke: white; stroke-width: 15px;"/></g><g class="djs-children"><g class="djs-group"><g class="djs-element djs-shape" data-element-id="Lane_1sepbv8" style="display: block;" transform="matrix(1 0 0 1 210 400)"><g class="djs-visual"><rect x="0" y="0" width="960" height="130" rx="0" ry="0" style="stroke: black; stroke-width: 2px; fill: white; fill-opacity: 0.35;"/><text lineHeight="1.2" class="djs-label" style="font-family: Arial, sans-serif; font-size: 12px; font-weight: normal; fill: black;" transform="matrix(-1.83697e-16 -1 1 -1.83697e-16 0 130)"><tspan x="45.3203125" y="18.6">Raia_B</tspan></text></g><rect x="-6" y="-6" width="972" height="142" class="djs-outline" style="fill: none;"/><rect class="djs-hit djs-hit-click-stroke" x="0" y="0" width="960" height="130" style="fill: none; stroke-opacity: 0; stroke: white; stroke-width: 15px;"/><rect class="djs-hit djs-hit-all" x="0" y="0" width="30" height="130" style="fill: none; stroke-opacity: 0; stroke: white; stroke-width: 15px;"/></g></g><g class="djs-group"><g class="djs-element djs-shape" data-element-id="Lane_1dwcin8" style="display: block;" transform="matrix(1 0 0 1 210 70)"><g class="djs-visual"><rect x="0" y="0" width="960" height="330" rx="0" ry="0" style="stroke: black; stroke-width: 2px; fill: white; fill-opacity: 0.35;"/><text lineHeight="1.2" class="djs-label" style="font-family: Arial, sans-serif; font-size: 12px; font-weight: normal; fill: black;" transform="matrix(-1.83697e-16 -1 1 -1.83697e-16 0 330)"><tspan x="144.8232421875" y="18.6">Raia_A</tspan></text></g><rect x="-6" y="-6" width="972" height="342" class="djs-outline" style="fill: none;"/><rect class="djs-hit djs-hit-click-stroke" x="0" y="0" width="960" height="330" style="fill: none; stroke-opacity: 0; stroke: white; stroke-width: 15px;"/><rect class="djs-hit djs-hit-all" x="0" y="0" width="30" height="330" style="fill: none; stroke-opacity: 0; stroke: white; stroke-width: 15px;"/></g></g><g class="djs-group"><g class="djs-element djs-connection" data-element-id="Flow_1alb3uk" style="display: block;"><g class="djs-visual"><path d="m  951,190L995,190 " style="fill: none; stroke-width: 2px; stroke: black; stroke-linejoin: round; marker-end: url('#sequenceflow-end-white-black-f3dvd76i9dylka12z015nv608');"/></g><polyline points="951,190 995,190 " class="djs-hit djs-hit-stroke" style="fill: none; stroke-opacity: 0; stroke: white; stroke-width: 15px;"/><rect x="945" y="184" width="56" height="12" class="djs-outline" style="fill: none;"/></g></g><g class="djs-group"><g class="djs-element djs-connection" data-element-id="Flow_09w26mg" style="display: block;"><g class="djs-visual"><path d="m  571,470L1020,470 L1020,215 " style="fill: none; stroke-width: 2px; stroke: black; stroke-linejoin: round; marker-end: url('#sequenceflow-end-white-black-f3dvd76i9dylka12z015nv608');"/></g><polyline points="571,470 1020,470 1020,215 " class="djs-hit djs-hit-stroke" style="fill: none; stroke-opacity: 0; stroke: white; stroke-width: 15px;"/><rect x="565" y="209" width="461" height="267" class="djs-outline" style="fill: none;"/></g></g><g class="djs-group"><g class="djs-element djs-connection" data-element-id="Flow_1n8q6rm" style="display: block;"><g class="djs-visual"><path d="m  1045,190L1092,190 " style="fill: none; stroke-width: 2px; stroke: black; stroke-linejoin: round; marker-end: url('#sequenceflow-end-white-black-f3dvd76i9dylka12z015nv608');"/></g><polyline points="1045,190 1092,190 " class="djs-hit djs-hit-stroke" style="fill: none; stroke-opacity: 0; stroke: white; stroke-width: 15px;"/><rect x="1039" y="184" width="59" height="12" class="djs-outline" style="fill: none;"/></g></g><g class="djs-group"><g class="djs-element djs-connection" data-element-id="Flow_1gxp34k" style="display: block;"><g class="djs-visual"><path d="m  328,190L365,190 " style="fill: none; stroke-width: 2px; stroke: black; stroke-linejoin: round; marker-end: url('#sequenceflow-end-white-black-f3dvd76i9dylka12z015nv608');"/></g><polyline points="328,190 365,190 " class="djs-hit djs-hit-stroke" style="fill: none; stroke-opacity: 0; stroke: white; stroke-width: 15px;"/><rect x="322" y="184" width="49" height="12" class="djs-outline" style="fill: none;"/></g></g><g class="djs-group"><g class="djs-element djs-connection" data-element-id="Flow_1oejdmx" style="display: block;"><g class="djs-visual"><path d="m  415,190L471,190 " style="fill: none; stroke-width: 2px; stroke: black; stroke-linejoin: round; marker-end: url('#sequenceflow-end-white-black-f3dvd76i9dylka12z015nv608');"/></g><polyline points="415,190 471,190 " class="djs-hit djs-hit-stroke" style="fill: none; stroke-opacity: 0; stroke: white; stroke-width: 15px;"/><rect x="409" y="184" width="68" height="12" class="djs-outline" style="fill: none;"/></g></g><g class="djs-group"><g class="djs-element djs-connection" data-element-id="Flow_04i6lbw" style="display: block;"><g class="djs-visual"><path d="m  1020,165L1020,90 L390,90 L390,165 " style="fill: none; stroke-width: 2px; stroke: black; stroke-linejoin: round; marker-end: url('#sequenceflow-end-white-black-f3dvd76i9dylka12z015nv608');"/></g><polyline points="1020,165 1020,90 390,90 390,165 " class="djs-hit djs-hit-stroke" style="fill: none; stroke-opacity: 0; stroke: white; stroke-width: 15px;"/><rect x="384" y="84" width="642" height="87" class="djs-outline" style="fill: none;"/></g></g><g class="djs-group"><g class="djs-element djs-connection" data-element-id="Flow_04owddi" style="display: block;"><g class="djs-visual"><path d="m  390,215L390,470 L471,470 " style="fill: none; stroke-width: 2px; stroke: black; stroke-linejoin: round; marker-end: url('#sequenceflow-end-white-black-f3dvd76i9dylka12z015nv608');"/></g><polyline points="390,215 390,470 471,470 " class="djs-hit djs-hit-stroke" style="fill: none; stroke-opacity: 0; stroke: white; stroke-width: 15px;"/><rect x="384" y="209" width="93" height="267" class="djs-outline" style="fill: none;"/></g></g><g class="djs-group"><g class="djs-element djs-shape" data-element-id="Gateway_195wyua" style="display: block;" transform="matrix(1 0 0 1 995 165)"><g class="djs-visual"><polygon points="25,0 50,25 25,50 0,25" style="stroke: black; stroke-width: 2px; fill: white; fill-opacity: 0.95;"/><path d="m 16,15 7.42857142857143,9.714285714285715 -7.42857142857143,9.714285714285715 3.428571428571429,0 5.714285714285715,-7.464228571428572 5.714285714285715,7.464228571428572 3.428571428571429,0 -7.42857142857143,-9.714285714285715 7.42857142857143,-9.714285714285715 -3.428571428571429,0 -5.714285714285715,7.464228571428572 -5.714285714285715,-7.464228571428572 -3.428571428571429,0 z" style="fill: black; stroke-width: 1px; stroke: black;"/></g><rect class="djs-hit djs-hit-all" x="0" y="0" width="50" height="50" style="fill: none; stroke-opacity: 0; stroke: white; stroke-width: 15px;"/><rect x="-6" y="-6" width="62" height="62" class="djs-outline" style="fill: none;"/></g></g><g class="djs-group"><g class="djs-element djs-shape" data-element-id="Event_0d7tlry" style="display: block;" transform="matrix(1 0 0 1 1092 172)"><g class="djs-visual"><circle cx="18" cy="18" r="18" style="stroke: black; stroke-width: 4px; fill: white; fill-opacity: 0.95;"/><circle cx="18" cy="18" r="10" style="stroke: black; stroke-width: 4px; fill: black;"/></g><rect class="djs-hit djs-hit-all" x="0" y="0" width="36" height="36" style="fill: none; stroke-opacity: 0; stroke: white; stroke-width: 15px;"/><rect x="-6" y="-6" width="48" height="48" class="djs-outline" style="fill: none;"/></g></g><g class="djs-group"><g class="djs-element djs-shape" data-element-id="Gateway_18u46fv" style="display: block;" transform="matrix(1 0 0 1 365 165)"><g class="djs-visual"><polygon points="25,0 50,25 25,50 0,25" style="stroke: black; stroke-width: 2px; fill: white; fill-opacity: 0.95;"/><path d="m 16,15 7.42857142857143,9.714285714285715 -7.42857142857143,9.714285714285715 3.428571428571429,0 5.714285714285715,-7.464228571428572 5.714285714285715,7.464228571428572 3.428571428571429,0 -7.42857142857143,-9.714285714285715 7.42857142857143,-9.714285714285715 -3.428571428571429,0 -5.714285714285715,7.464228571428572 -5.714285714285715,-7.464228571428572 -3.428571428571429,0 z" style="fill: black; stroke-width: 1px; stroke: black;"/></g><rect class="djs-hit djs-hit-all" x="0" y="0" width="50" height="50" style="fill: none; stroke-opacity: 0; stroke: white; stroke-width: 15px;"/><rect x="-6" y="-6" width="62" height="62" class="djs-outline" style="fill: none;"/></g></g><g class="djs-group"><g class="djs-element djs-shape" data-element-id="StartEvent_1bhee4x" style="display: block;" transform="matrix(1 0 0 1 292 172)"><g class="djs-visual"><circle cx="18" cy="18" r="18" style="stroke: black; stroke-width: 2px; fill: white; fill-opacity: 0.95;"/></g><rect class="djs-hit djs-hit-all" x="0" y="0" width="36" height="36" style="fill: none; stroke-opacity: 0; stroke: white; stroke-width: 15px;"/><rect x="-6" y="-6" width="48" height="48" class="djs-outline" style="fill: none;"/></g></g><g class="djs-group"><g class="djs-element djs-shape" data-element-id="Activity_076ztng" style="display: block;" transform="matrix(1 0 0 1 471 130)"><g class="djs-visual"><rect x="0" y="0" width="480" height="240" rx="10" ry="10" style="stroke: black; stroke-width: 2px; fill: white; fill-opacity: 0.95;"/><text lineHeight="1.2" class="djs-label" style="font-family: Arial, sans-serif; font-size: 12px; font-weight: normal; fill: black;"><tspan x="195.4755859375" y="15.799999999999999">SubProcesso A2</tspan></text></g><rect x="-6" y="-6" width="492" height="252" class="djs-outline" style="fill: none;"/><rect class="djs-hit djs-hit-click-stroke" x="0" y="0" width="480" height="240" style="fill: none; stroke-opacity: 0; stroke: white; stroke-width: 15px;"/><rect class="djs-hit djs-hit-all" x="0" y="0" width="480" height="30" style="fill: none; stroke-opacity: 0; stroke: white; stroke-width: 15px;"/></g><g class="djs-children"><g class="djs-group"><g class="djs-element djs-connection" data-element-id="Flow_0hvcady" style="display: block;"><g class="djs-visual"><path d="m  691,210L823,210 " style="fill: none; stroke-width: 2px; stroke: black; stroke-linejoin: round; marker-end: url('#sequenceflow-end-white-black-f3dvd76i9dylka12z015nv608');"/></g><polyline points="691,210 823,210 " class="djs-hit djs-hit-stroke" style="fill: none; stroke-opacity: 0; stroke: white; stroke-width: 15px;"/><rect x="685" y="204" width="144" height="12" class="djs-outline" style="fill: none;"/></g></g><g class="djs-group"><g class="djs-element djs-connection" data-element-id="Flow_0vqcib2" style="display: block;"><g class="djs-visual"><path d="m  781,310L823,310 " style="fill: none; stroke-width: 2px; stroke: black; stroke-linejoin: round; marker-end: url('#sequenceflow-end-white-black-f3dvd76i9dylka12z015nv608');"/></g><polyline points="781,310 823,310 " class="djs-hit djs-hit-stroke" style="fill: none; stroke-opacity: 0; stroke: white; stroke-width: 15px;"/><rect x="775" y="304" width="54" height="12" class="djs-outline" style="fill: none;"/></g></g><g class="djs-group"><g class="djs-element djs-connection" data-element-id="Flow_04q6pa0" style="display: block;"><g class="djs-visual"><path d="m  621,268L621,310 L681,310 " style="fill: none; stroke-width: 2px; stroke: black; stroke-linejoin: round; marker-end: url('#sequenceflow-end-white-black-f3dvd76i9dylka12z015nv608');"/></g><polyline points="621,268 621,310 681,310 " class="djs-hit djs-hit-stroke" style="fill: none; stroke-opacity: 0; stroke: white; stroke-width: 15px;"/><rect x="615" y="262" width="72" height="54" class="djs-outline" style="fill: none;"/></g></g><g class="djs-group"><g class="djs-element djs-connection" data-element-id="Flow_04xnuql" style="display: block;"><g class="djs-visual"><path d="m  559,210L591,210 " style="fill: none; stroke-width: 2px; stroke: black; stroke-linejoin: round; marker-end: url('#sequenceflow-end-white-black-f3dvd76i9dylka12z015nv608');"/></g><polyline points="559,210 591,210 " class="djs-hit djs-hit-stroke" style="fill: none; stroke-opacity: 0; stroke: white; stroke-width: 15px;"/><rect x="553" y="204" width="44" height="12" class="djs-outline" style="fill: none;"/></g></g><g class="djs-group"><g class="djs-element djs-shape" data-element-id="Event_134yfug" style="display: block;" transform="matrix(1 0 0 1 523 192)"><g class="djs-visual"><circle cx="18" cy="18" r="18" style="stroke: black; stroke-width: 2px; fill: white; fill-opacity: 0.95;"/></g><rect class="djs-hit djs-hit-all" x="0" y="0" width="36" height="36" style="fill: none; stroke-opacity: 0; stroke: white; stroke-width: 15px;"/><rect x="-6" y="-6" width="48" height="48" class="djs-outline" style="fill: none;"/></g></g><g class="djs-group"><g class="djs-element djs-shape" data-element-id="Activity_0eg9rwq" style="display: block;" transform="matrix(1 0 0 1 591 170)"><g class="djs-visual"><rect x="0" y="0" width="100" height="80" rx="10" ry="10" style="stroke: black; stroke-width: 2px; fill: white; fill-opacity: 0.95;"/><text lineHeight="1.2" class="djs-label" style="font-family: Arial, sans-serif; font-size: 12px; font-weight: normal; fill: black;"><tspan x="10.46875" y="43.599999999999994">Atividade A2_1</tspan></text></g><rect class="djs-hit djs-hit-all" x="0" y="0" width="100" height="80" style="fill: none; stroke-opacity: 0; stroke: white; stroke-width: 15px;"/><rect x="-6" y="-6" width="112" height="92" class="djs-outline" style="fill: none;"/></g></g><g class="djs-group"><g class="djs-element djs-shape" data-element-id="Event_0e6e2q6" style="display: block;" transform="matrix(1 0 0 1 823 292)"><g class="djs-visual"><circle cx="18" cy="18" r="18" style="stroke: black; stroke-width: 4px; fill: white; fill-opacity: 0.95;"/></g><rect class="djs-hit djs-hit-all" x="0" y="0" width="36" height="36" style="fill: none; stroke-opacity: 0; stroke: white; stroke-width: 15px;"/><rect x="-6" y="-6" width="48" height="48" class="djs-outline" style="fill: none;"/></g></g><g class="djs-group"><g class="djs-element djs-shape" data-element-id="Event_1tnf7j4" style="display: block;" transform="matrix(1 0 0 1 823 192)"><g class="djs-visual"><circle cx="18" cy="18" r="18" style="stroke: black; stroke-width: 4px; fill: white; fill-opacity: 0.95;"/><path d="m 8.459999999999999,11.34 l 0,12.6 l 18.900000000000002,0 l 0,-12.6 z l 9.450000000000001,5.4 l 9.450000000000001,-5.4" style="fill: black; stroke-width: 1px; stroke: white;"/></g><rect class="djs-hit djs-hit-all" x="0" y="0" width="36" height="36" style="fill: none; stroke-opacity: 0; stroke: white; stroke-width: 15px;"/><rect x="-6" y="-6" width="48" height="48" class="djs-outline" style="fill: none;"/></g></g><g class="djs-group"><g class="djs-element djs-shape" data-element-id="Activity_19as7zi" style="display: block;" transform="matrix(1 0 0 1 681 270)"><g class="djs-visual"><rect x="0" y="0" width="100" height="80" rx="10" ry="10" style="stroke: black; stroke-width: 2px; fill: white; fill-opacity: 0.95;"/><text lineHeight="1.2" class="djs-label" style="font-family: Arial, sans-serif; font-size: 12px; font-weight: normal; fill: black;"><tspan x="10.3056640625" y="43.599999999999994">Atividade A2_2</tspan></text><path d="m 15,20 c 9.966553,-6.27276 -8.000926,-7.91932 2.968968,-14.938 l -8.802728,0 c -10.969894,7.01868 6.997585,8.66524 -2.968967,14.938 z m -7,-12 l 5,0 m -4.5,3 l 4.5,0 m -3,3 l 5,0m -4,3 l 5,0" style="fill: none; stroke-width: 1px; stroke: black;"/></g><rect class="djs-hit djs-hit-all" x="0" y="0" width="100" height="80" style="fill: none; stroke-opacity: 0; stroke: white; stroke-width: 15px;"/><rect x="-6" y="-6" width="112" height="92" class="djs-outline" style="fill: none;"/></g></g><g class="djs-group"><g class="djs-element djs-shape" data-element-id="Event_0rmh4e2" style="display: block;" transform="matrix(1 0 0 1 603 232)"><g class="djs-visual"><circle cx="18" cy="18" r="18" style="stroke: black; stroke-width: 1px; fill: white; fill-opacity: 1;"/><circle cx="18" cy="18" r="15" style="stroke: black; stroke-width: 1px; fill: none;"/><circle cx="18" cy="18" r="11" style="stroke: black; stroke-width: 2px; fill: white;"/><path d="M 18,18 l 2.25,-7.5 m -2.25,7.5 l 5.25,1.5 " style="fill: none; stroke-width: 2px; stroke: black; stroke-linecap: square;"/><path d="M 18,18 m 0,7.5 l -0,2.25 " transform="rotate(0,18,18)" style="fill: none; stroke-width: 1px; stroke: black; stroke-linecap: square;"/><path d="M 18,18 m 0,7.5 l -0,2.25 " transform="rotate(30,18,18)" style="fill: none; stroke-width: 1px; stroke: black; stroke-linecap: square;"/><path d="M 18,18 m 0,7.5 l -0,2.25 " transform="rotate(60,18,18)" style="fill: none; stroke-width: 1px; stroke: black; stroke-linecap: square;"/><path d="M 18,18 m 0,7.5 l -0,2.25 " transform="rotate(90,18,18)" style="fill: none; stroke-width: 1px; stroke: black; stroke-linecap: square;"/><path d="M 18,18 m 0,7.5 l -0,2.25 " transform="rotate(120,18,18)" style="fill: none; stroke-width: 1px; stroke: black; stroke-linecap: square;"/><path d="M 18,18 m 0,7.5 l -0,2.25 " transform="rotate(150,18,18)" style="fill: none; stroke-width: 1px; stroke: black; stroke-linecap: square;"/><path d="M 18,18 m 0,7.5 l -0,2.25 " transform="rotate(180,18,18)" style="fill: none; stroke-width: 1px; stroke: black; stroke-linecap: square;"/><path d="M 18,18 m 0,7.5 l -0,2.25 " transform="rotate(210,18,18)" style="fill: none; stroke-width: 1px; stroke: black; stroke-linecap: square;"/><path d="M 18,18 m 0,7.5 l -0,2.25 " transform="rotate(240,18,18)" style="fill: none; stroke-width: 1px; stroke: black; stroke-linecap: square;"/><path d="M 18,18 m 0,7.5 l -0,2.25 " transform="rotate(270,18,18)" style="fill: none; stroke-width: 1px; stroke: black; stroke-linecap: square;"/><path d="M 18,18 m 0,7.5 l -0,2.25 " transform="rotate(300,18,18)" style="fill: none; stroke-width: 1px; stroke: black; stroke-linecap: square;"/><path d="M 18,18 m 0,7.5 l -0,2.25 " transform="rotate(330,18,18)" style="fill: none; stroke-width: 1px; stroke: black; stroke-linecap: square;"/></g><rect class="djs-hit djs-hit-all" x="0" y="0" width="36" height="36" style="fill: none; stroke-opacity: 0; stroke: white; stroke-width: 15px;"/><rect x="-6" y="-6" width="48" height="48" class="djs-outline" style="fill: none;"/></g></g></g></g><g class="djs-group"><g class="djs-element djs-shape" data-element-id="Activity_1rxvh3p" style="display: block;" transform="matrix(1 0 0 1 471 430)"><g class="djs-visual"><rect x="0" y="0" width="100" height="80" rx="10" ry="10" style="stroke: black; stroke-width: 2px; fill: white; fill-opacity: 0.95;"/><text lineHeight="1.2" class="djs-label" style="font-family: Arial, sans-serif; font-size: 12px; font-weight: normal; fill: black;"><tspan x="16.8046875" y="43.599999999999994">Atividade B1</tspan></text><path d="m 15,12 c 0.909,-0.845 1.594,-2.049 1.594,-3.385 0,-2.554 -1.805,-4.62199999 -4.357,-4.62199999 -2.55199998,0 -4.28799998,2.06799999 -4.28799998,4.62199999 0,1.348 0.974,2.562 1.89599998,3.405 -0.52899998,0.187 -5.669,2.097 -5.794,4.7560005 v 6.718 h 17 v -6.718 c 0,-2.2980005 -5.5279996,-4.5950005 -6.0509996,-4.7760005 zm -8,6 l 0,5.5 m 11,0 l 0,-5" style="fill: white; stroke-width: 0.5px; stroke: black;"/><path d="m 15,12 m 2.162,1.009 c 0,2.4470005 -2.158,4.4310005 -4.821,4.4310005 -2.66499998,0 -4.822,-1.981 -4.822,-4.4310005 " style="fill: white; stroke-width: 0.5px; stroke: black;"/><path d="m 15,12 m -6.9,-3.80 c 0,0 2.25099998,-2.358 4.27399998,-1.177 2.024,1.181 4.221,1.537 4.124,0.965 -0.098,-0.57 -0.117,-3.79099999 -4.191,-4.13599999 -3.57499998,0.001 -4.20799998,3.36699999 -4.20699998,4.34799999 z" style="fill: black; stroke-width: 0.5px; stroke: black;"/></g><rect class="djs-hit djs-hit-all" x="0" y="0" width="100" height="80" style="fill: none; stroke-opacity: 0; stroke: white; stroke-width: 15px;"/><rect x="-6" y="-6" width="112" height="92" class="djs-outline" style="fill: none;"/></g></g></g></g></svg>